<mxfile host="app.diagrams.net" modified="2024-03-12T12:05:55.280Z" agent="Mozilla/5.0 (X11; Ubuntu; Linux x86_64; rv:123.0) Gecko/20100101 Firefox/123.0" etag="IvSbrpZ_HN00wcGop2BC" version="24.0.5" type="github">
  <diagram name="Page-1" id="38b20595-45e3-9b7f-d5ca-b57f44c5b66d">
    <mxGraphModel dx="4097" dy="2120" grid="1" gridSize="10" guides="1" tooltips="1" connect="1" arrows="1" fold="1" page="1" pageScale="1" pageWidth="1169" pageHeight="827" background="none" math="0" shadow="0">
      <root>
        <mxCell id="0" />
        <mxCell id="1" parent="0" />
        <mxCell id="48ef80bc37b76060-128" value="" style="verticalLabelPosition=bottom;html=1;verticalAlign=top;align=center;strokeWidth=1;shape=mxgraph.floorplan.wallU;fillColor=#000000;rounded=0;shadow=0;comic=0;fontFamily=Verdana;fontSize=12;rotation=90;" parent="1" vertex="1">
          <mxGeometry x="1021" y="-380" width="1210" height="2456" as="geometry" />
        </mxCell>
        <mxCell id="48ef80bc37b76060-156" value="" style="verticalLabelPosition=bottom;html=1;verticalAlign=top;align=center;strokeWidth=1;shape=mxgraph.floorplan.wall;fillColor=#000000;direction=south;rounded=0;shadow=0;comic=0;fontFamily=Verdana;fontSize=12;" parent="1" vertex="1">
          <mxGeometry x="400" y="253" width="10" height="1203" as="geometry" />
        </mxCell>
        <mxCell id="48ef80bc37b76060-238" value="" style="verticalLabelPosition=bottom;html=1;verticalAlign=top;align=center;strokeWidth=1;shape=mxgraph.floorplan.wall;fillColor=#000000;rounded=0;shadow=0;comic=0;fontFamily=Verdana;fontSize=12;" parent="1" vertex="1">
          <mxGeometry x="1227" y="720" width="53" height="10" as="geometry" />
        </mxCell>
        <mxCell id="48ef80bc37b76060-255" value="" style="verticalLabelPosition=bottom;html=1;verticalAlign=top;align=center;strokeWidth=1;shape=mxgraph.floorplan.doorLeft;rounded=0;shadow=0;comic=0;fontFamily=Verdana;fontSize=12;rotation=90;flipV=1;flipH=1;direction=west;" parent="1" vertex="1">
          <mxGeometry x="1280" y="718" width="80" height="85" as="geometry" />
        </mxCell>
        <mxCell id="48ef80bc37b76060-318" value="" style="verticalLabelPosition=bottom;html=1;verticalAlign=top;align=center;strokeWidth=1;shape=mxgraph.floorplan.wall;fillColor=#000000;direction=south;rounded=0;shadow=0;comic=0;fontFamily=Verdana;fontSize=12;" parent="1" vertex="1">
          <mxGeometry x="1420" y="260" width="10" height="467" as="geometry" />
        </mxCell>
        <mxCell id="48ef80bc37b76060-327" value="" style="verticalLabelPosition=bottom;html=1;verticalAlign=top;align=center;strokeWidth=1;shape=mxgraph.floorplan.wall;fillColor=#000000;direction=south;rounded=0;shadow=0;comic=0;fontFamily=Verdana;fontSize=12;" parent="1" vertex="1">
          <mxGeometry x="1217" y="247" width="10" height="483" as="geometry" />
        </mxCell>
        <mxCell id="NKCFmdgks-fXZjioM6Jo-4" value="" style="verticalLabelPosition=bottom;html=1;verticalAlign=top;align=center;strokeWidth=1;shape=mxgraph.floorplan.toilet;rounded=0;shadow=0;comic=0;fontFamily=Verdana;fontSize=12;rotation=-90;direction=north;" parent="1" vertex="1">
          <mxGeometry x="440" y="1330" width="99.25" height="77.75" as="geometry" />
        </mxCell>
        <mxCell id="NKCFmdgks-fXZjioM6Jo-5" value="" style="verticalLabelPosition=bottom;html=1;verticalAlign=top;align=center;strokeWidth=1;shape=mxgraph.floorplan.wall;fillColor=#000000;rounded=0;shadow=0;comic=0;fontFamily=Verdana;fontSize=12;" parent="1" vertex="1">
          <mxGeometry x="820" y="717" width="240" height="10" as="geometry" />
        </mxCell>
        <mxCell id="NKCFmdgks-fXZjioM6Jo-7" value="" style="verticalLabelPosition=bottom;html=1;verticalAlign=top;align=center;strokeWidth=1;shape=mxgraph.floorplan.doorLeft;rounded=0;shadow=0;comic=0;fillColor=#FFFFFF;fontFamily=Verdana;fontSize=12;rotation=90;" parent="1" vertex="1">
          <mxGeometry x="1070" y="720" width="92" height="85" as="geometry" />
        </mxCell>
        <mxCell id="NKCFmdgks-fXZjioM6Jo-11" value="" style="verticalLabelPosition=bottom;html=1;verticalAlign=top;align=center;strokeWidth=1;shape=mxgraph.floorplan.sink_2;rounded=0;shadow=0;comic=0;fontFamily=Verdana;fontSize=12;rotation=90;" parent="1" vertex="1">
          <mxGeometry x="522.5" y="1192.5" width="70" height="60" as="geometry" />
        </mxCell>
        <mxCell id="NKCFmdgks-fXZjioM6Jo-16" value="" style="verticalLabelPosition=bottom;html=1;verticalAlign=top;align=center;strokeWidth=1;shape=mxgraph.floorplan.wall;fillColor=#000000;direction=west;rounded=0;shadow=0;comic=0;fontFamily=Verdana;fontSize=12;" parent="1" vertex="1">
          <mxGeometry x="1162" y="719" width="58" height="10" as="geometry" />
        </mxCell>
        <mxCell id="NKCFmdgks-fXZjioM6Jo-31" value="" style="verticalLabelPosition=bottom;html=1;verticalAlign=top;align=center;shape=mxgraph.floorplan.stairsRest;direction=west;strokeWidth=8;" parent="1" vertex="1">
          <mxGeometry x="410" y="718" width="410" height="242" as="geometry" />
        </mxCell>
        <mxCell id="NKCFmdgks-fXZjioM6Jo-32" value="" style="verticalLabelPosition=bottom;html=1;verticalAlign=top;align=center;shape=mxgraph.floorplan.wall;fillColor=strokeColor;direction=south;" parent="1" vertex="1">
          <mxGeometry x="1200" y="960" width="10" height="480" as="geometry" />
        </mxCell>
        <mxCell id="NKCFmdgks-fXZjioM6Jo-33" value="v" style="verticalLabelPosition=bottom;html=1;verticalAlign=top;align=center;shape=mxgraph.floorplan.wall;fillColor=strokeColor;direction=south;" parent="1" vertex="1">
          <mxGeometry x="360" y="1120" width="480" height="326" as="geometry" />
        </mxCell>
        <mxCell id="NKCFmdgks-fXZjioM6Jo-35" value="v" style="verticalLabelPosition=bottom;html=1;verticalAlign=top;align=center;shape=mxgraph.floorplan.wall;fillColor=strokeColor;direction=south;" parent="1" vertex="1">
          <mxGeometry x="760" y="1120" width="480" height="326" as="geometry" />
        </mxCell>
        <mxCell id="NKCFmdgks-fXZjioM6Jo-36" value="v" style="verticalLabelPosition=bottom;html=1;verticalAlign=top;align=center;shape=mxgraph.floorplan.wall;fillColor=strokeColor;direction=south;" parent="1" vertex="1">
          <mxGeometry x="560" y="1120" width="480" height="326" as="geometry" />
        </mxCell>
        <mxCell id="NKCFmdgks-fXZjioM6Jo-37" value="" style="verticalLabelPosition=bottom;html=1;verticalAlign=top;align=center;shape=mxgraph.floorplan.doorLeft;aspect=fixed;direction=west;" parent="1" vertex="1">
          <mxGeometry x="1060" y="1040" width="80" height="85" as="geometry" />
        </mxCell>
        <mxCell id="NKCFmdgks-fXZjioM6Jo-39" value="" style="verticalLabelPosition=bottom;html=1;verticalAlign=top;align=center;shape=mxgraph.floorplan.wall;fillColor=strokeColor;" parent="1" vertex="1">
          <mxGeometry x="1140" y="1120" width="60" height="10" as="geometry" />
        </mxCell>
        <mxCell id="NKCFmdgks-fXZjioM6Jo-41" value="" style="verticalLabelPosition=bottom;html=1;verticalAlign=top;align=center;shape=mxgraph.floorplan.wall;fillColor=strokeColor;" parent="1" vertex="1">
          <mxGeometry x="1000" y="1120" width="60" height="10" as="geometry" />
        </mxCell>
        <mxCell id="NKCFmdgks-fXZjioM6Jo-46" style="edgeStyle=orthogonalEdgeStyle;rounded=0;orthogonalLoop=1;jettySize=auto;html=1;" parent="1" source="NKCFmdgks-fXZjioM6Jo-42" target="NKCFmdgks-fXZjioM6Jo-36" edge="1">
          <mxGeometry relative="1" as="geometry" />
        </mxCell>
        <mxCell id="NKCFmdgks-fXZjioM6Jo-42" value="" style="verticalLabelPosition=bottom;html=1;verticalAlign=top;align=center;shape=mxgraph.floorplan.wall;fillColor=strokeColor;" parent="1" vertex="1">
          <mxGeometry x="800" y="1120" width="60" height="10" as="geometry" />
        </mxCell>
        <mxCell id="NKCFmdgks-fXZjioM6Jo-43" value="" style="verticalLabelPosition=bottom;html=1;verticalAlign=top;align=center;shape=mxgraph.floorplan.wall;fillColor=strokeColor;" parent="1" vertex="1">
          <mxGeometry x="940" y="1120" width="60" height="10" as="geometry" />
        </mxCell>
        <mxCell id="NKCFmdgks-fXZjioM6Jo-44" value="" style="verticalLabelPosition=bottom;html=1;verticalAlign=top;align=center;shape=mxgraph.floorplan.doorLeft;aspect=fixed;direction=west;" parent="1" vertex="1">
          <mxGeometry x="660" y="1045" width="80" height="85" as="geometry" />
        </mxCell>
        <mxCell id="NKCFmdgks-fXZjioM6Jo-45" value="" style="verticalLabelPosition=bottom;html=1;verticalAlign=top;align=center;shape=mxgraph.floorplan.wall;fillColor=strokeColor;" parent="1" vertex="1">
          <mxGeometry x="600" y="1120" width="60" height="10" as="geometry" />
        </mxCell>
        <mxCell id="NKCFmdgks-fXZjioM6Jo-47" value="v" style="verticalLabelPosition=bottom;html=1;verticalAlign=top;align=center;shape=mxgraph.floorplan.wall;fillColor=strokeColor;" parent="1" vertex="1">
          <mxGeometry x="550" y="1120" width="50" height="10" as="geometry" />
        </mxCell>
        <mxCell id="NKCFmdgks-fXZjioM6Jo-48" value="" style="verticalLabelPosition=bottom;html=1;verticalAlign=top;align=center;shape=mxgraph.floorplan.doorLeft;aspect=fixed;direction=west;" parent="1" vertex="1">
          <mxGeometry x="860" y="1045" width="80" height="85" as="geometry" />
        </mxCell>
        <mxCell id="NKCFmdgks-fXZjioM6Jo-49" value="" style="verticalLabelPosition=bottom;html=1;verticalAlign=top;align=center;shape=mxgraph.floorplan.wall;fillColor=strokeColor;" parent="1" vertex="1">
          <mxGeometry x="410" y="1120" width="60" height="10" as="geometry" />
        </mxCell>
        <mxCell id="NKCFmdgks-fXZjioM6Jo-50" value="" style="verticalLabelPosition=bottom;html=1;verticalAlign=top;align=center;shape=mxgraph.floorplan.doorLeft;aspect=fixed;direction=west;" parent="1" vertex="1">
          <mxGeometry x="470" y="1045" width="80" height="85" as="geometry" />
        </mxCell>
        <mxCell id="NKCFmdgks-fXZjioM6Jo-51" value="" style="verticalLabelPosition=bottom;html=1;verticalAlign=top;align=center;shape=mxgraph.floorplan.wall;fillColor=strokeColor;" parent="1" vertex="1">
          <mxGeometry x="740" y="1120" width="60" height="10" as="geometry" />
        </mxCell>
        <mxCell id="NKCFmdgks-fXZjioM6Jo-52" value="" style="verticalLabelPosition=bottom;html=1;verticalAlign=top;align=center;strokeWidth=1;shape=mxgraph.floorplan.toilet;rounded=0;shadow=0;comic=0;fontFamily=Verdana;fontSize=12;rotation=-90;direction=north;" parent="1" vertex="1">
          <mxGeometry x="640.75" y="1330" width="99.25" height="77.75" as="geometry" />
        </mxCell>
        <mxCell id="NKCFmdgks-fXZjioM6Jo-53" value="" style="verticalLabelPosition=bottom;html=1;verticalAlign=top;align=center;strokeWidth=1;shape=mxgraph.floorplan.sink_2;rounded=0;shadow=0;comic=0;fontFamily=Verdana;fontSize=12;rotation=90;" parent="1" vertex="1">
          <mxGeometry x="720" y="1190" width="70" height="60" as="geometry" />
        </mxCell>
        <mxCell id="NKCFmdgks-fXZjioM6Jo-54" value="" style="verticalLabelPosition=bottom;html=1;verticalAlign=top;align=center;strokeWidth=1;shape=mxgraph.floorplan.wall;fillColor=#000000;direction=south;rounded=0;shadow=0;comic=0;fontFamily=Verdana;fontSize=12;" parent="1" vertex="1">
          <mxGeometry x="1670" y="230" width="10" height="490" as="geometry" />
        </mxCell>
        <mxCell id="NKCFmdgks-fXZjioM6Jo-55" value="" style="verticalLabelPosition=bottom;html=1;verticalAlign=top;align=center;strokeWidth=1;shape=mxgraph.floorplan.wall;fillColor=#000000;direction=south;rounded=0;shadow=0;comic=0;fontFamily=Verdana;fontSize=12;" parent="1" vertex="1">
          <mxGeometry x="2080" y="252" width="10" height="553" as="geometry" />
        </mxCell>
        <mxCell id="cE951n0SnukcfVOSbf7h-1" value="" style="verticalLabelPosition=bottom;html=1;verticalAlign=top;align=center;strokeWidth=1;shape=mxgraph.floorplan.wall;fillColor=#000000;direction=south;rounded=0;shadow=0;comic=0;fontFamily=Verdana;fontSize=12;" vertex="1" parent="1">
          <mxGeometry x="2430" y="450" width="10" height="350" as="geometry" />
        </mxCell>
        <mxCell id="cE951n0SnukcfVOSbf7h-2" value="" style="verticalLabelPosition=bottom;html=1;verticalAlign=top;align=center;strokeWidth=1;shape=mxgraph.floorplan.doorLeft;rounded=0;shadow=0;comic=0;fontFamily=Verdana;fontSize=12;rotation=90;flipV=1;flipH=1;direction=west;" vertex="1" parent="1">
          <mxGeometry x="2000" y="803" width="80" height="85" as="geometry" />
        </mxCell>
        <mxCell id="cE951n0SnukcfVOSbf7h-3" value="" style="verticalLabelPosition=bottom;html=1;verticalAlign=top;align=center;strokeWidth=1;shape=mxgraph.floorplan.wall;fillColor=#000000;direction=south;rounded=0;shadow=0;comic=0;fontFamily=Verdana;fontSize=12;" vertex="1" parent="1">
          <mxGeometry x="1920" y="960" width="10" height="480" as="geometry" />
        </mxCell>
        <mxCell id="cE951n0SnukcfVOSbf7h-4" value="" style="verticalLabelPosition=bottom;html=1;verticalAlign=top;align=center;strokeWidth=1;shape=mxgraph.floorplan.wall;fillColor=#000000;direction=south;rounded=0;shadow=0;comic=0;fontFamily=Verdana;fontSize=12;" vertex="1" parent="1">
          <mxGeometry x="1430" y="960" width="510" height="490" as="geometry" />
        </mxCell>
        <mxCell id="cE951n0SnukcfVOSbf7h-5" value="" style="verticalLabelPosition=bottom;html=1;verticalAlign=top;align=center;strokeWidth=1;shape=mxgraph.floorplan.doorLeft;rounded=0;shadow=0;comic=0;fontFamily=Verdana;fontSize=12;rotation=90;flipV=1;flipH=1;direction=north;" vertex="1" parent="1">
          <mxGeometry x="1770" y="888" width="85" height="80" as="geometry" />
        </mxCell>
        <mxCell id="cE951n0SnukcfVOSbf7h-6" value="" style="verticalLabelPosition=bottom;html=1;verticalAlign=top;align=center;strokeWidth=1;shape=mxgraph.floorplan.doorLeft;rounded=0;shadow=0;comic=0;fontFamily=Verdana;fontSize=12;rotation=90;flipV=1;flipH=1;direction=north;" vertex="1" parent="1">
          <mxGeometry x="1390" y="888" width="85" height="80" as="geometry" />
        </mxCell>
        <mxCell id="cE951n0SnukcfVOSbf7h-7" value="" style="verticalLabelPosition=bottom;html=1;verticalAlign=top;align=center;strokeWidth=1;shape=mxgraph.floorplan.wall;fillColor=#000000;direction=west;rounded=0;shadow=0;comic=0;fontFamily=Verdana;fontSize=12;" vertex="1" parent="1">
          <mxGeometry x="1200" y="960" width="190" height="10" as="geometry" />
        </mxCell>
        <mxCell id="cE951n0SnukcfVOSbf7h-8" value="" style="verticalLabelPosition=bottom;html=1;verticalAlign=top;align=center;strokeWidth=1;shape=mxgraph.floorplan.wall;fillColor=#000000;direction=west;rounded=0;shadow=0;comic=0;fontFamily=Verdana;fontSize=12;" vertex="1" parent="1">
          <mxGeometry x="1475" y="960" width="205" height="10" as="geometry" />
        </mxCell>
        <mxCell id="cE951n0SnukcfVOSbf7h-9" value="" style="verticalLabelPosition=bottom;html=1;verticalAlign=top;align=center;strokeWidth=1;shape=mxgraph.floorplan.wall;fillColor=#000000;direction=west;rounded=0;shadow=0;comic=0;fontFamily=Verdana;fontSize=12;" vertex="1" parent="1">
          <mxGeometry x="1680" y="960" width="90" height="10" as="geometry" />
        </mxCell>
        <mxCell id="cE951n0SnukcfVOSbf7h-10" value="" style="verticalLabelPosition=bottom;html=1;verticalAlign=top;align=center;strokeWidth=1;shape=mxgraph.floorplan.wall;fillColor=#000000;direction=west;rounded=0;shadow=0;comic=0;fontFamily=Verdana;fontSize=12;" vertex="1" parent="1">
          <mxGeometry x="1855" y="959" width="65" height="10" as="geometry" />
        </mxCell>
        <mxCell id="cE951n0SnukcfVOSbf7h-11" value="" style="verticalLabelPosition=bottom;html=1;verticalAlign=top;align=center;strokeWidth=1;shape=mxgraph.floorplan.wall;fillColor=#000000;rounded=0;shadow=0;comic=0;fontFamily=Verdana;fontSize=12;" vertex="1" parent="1">
          <mxGeometry x="1360" y="719" width="130" height="10" as="geometry" />
        </mxCell>
        <mxCell id="cE951n0SnukcfVOSbf7h-12" value="" style="verticalLabelPosition=bottom;html=1;verticalAlign=top;align=center;strokeWidth=1;shape=mxgraph.floorplan.doorLeft;rounded=0;shadow=0;comic=0;fontFamily=Verdana;fontSize=12;rotation=90;flipV=1;flipH=1;direction=west;" vertex="1" parent="1">
          <mxGeometry x="1490" y="718" width="80" height="85" as="geometry" />
        </mxCell>
        <mxCell id="cE951n0SnukcfVOSbf7h-13" value="" style="verticalLabelPosition=bottom;html=1;verticalAlign=top;align=center;strokeWidth=1;shape=mxgraph.floorplan.wall;fillColor=#000000;rounded=0;shadow=0;comic=0;fontFamily=Verdana;fontSize=12;" vertex="1" parent="1">
          <mxGeometry x="1570" y="720" width="270" height="10" as="geometry" />
        </mxCell>
        <mxCell id="cE951n0SnukcfVOSbf7h-14" value="" style="verticalLabelPosition=bottom;html=1;verticalAlign=top;align=center;strokeWidth=1;shape=mxgraph.floorplan.doorLeft;rounded=0;shadow=0;comic=0;fontFamily=Verdana;fontSize=12;rotation=90;flipV=1;flipH=1;direction=west;" vertex="1" parent="1">
          <mxGeometry x="1840" y="715" width="80" height="85" as="geometry" />
        </mxCell>
        <mxCell id="cE951n0SnukcfVOSbf7h-15" value="" style="verticalLabelPosition=bottom;html=1;verticalAlign=top;align=center;strokeWidth=1;shape=mxgraph.floorplan.wall;fillColor=#000000;rounded=0;shadow=0;comic=0;fontFamily=Verdana;fontSize=12;" vertex="1" parent="1">
          <mxGeometry x="1920" y="719" width="160" height="10" as="geometry" />
        </mxCell>
        <mxCell id="cE951n0SnukcfVOSbf7h-16" value="" style="verticalLabelPosition=bottom;html=1;verticalAlign=top;align=center;strokeWidth=1;shape=mxgraph.floorplan.wall;fillColor=#000000;direction=west;rounded=0;shadow=0;comic=0;fontFamily=Verdana;fontSize=12;" vertex="1" parent="1">
          <mxGeometry x="2080" y="959" width="540" height="10" as="geometry" />
        </mxCell>
        <mxCell id="cE951n0SnukcfVOSbf7h-17" value="" style="verticalLabelPosition=bottom;html=1;verticalAlign=top;align=center;strokeWidth=1;shape=mxgraph.floorplan.doorLeft;rounded=0;shadow=0;comic=0;fontFamily=Verdana;fontSize=12;rotation=90;flipV=1;flipH=1;direction=north;" vertex="1" parent="1">
          <mxGeometry x="1957.5" y="888" width="85" height="80" as="geometry" />
        </mxCell>
        <mxCell id="cE951n0SnukcfVOSbf7h-18" value="" style="verticalLabelPosition=bottom;html=1;verticalAlign=top;align=center;strokeWidth=1;shape=mxgraph.floorplan.wall;fillColor=#000000;direction=west;rounded=0;shadow=0;comic=0;fontFamily=Verdana;fontSize=12;" vertex="1" parent="1">
          <mxGeometry x="2090" y="440" width="350" height="6.5" as="geometry" />
        </mxCell>
        <mxCell id="cE951n0SnukcfVOSbf7h-19" value="" style="verticalLabelPosition=bottom;html=1;verticalAlign=top;align=center;strokeWidth=1;shape=mxgraph.floorplan.wall;fillColor=#000000;direction=west;rounded=0;shadow=0;comic=0;fontFamily=Verdana;fontSize=12;" vertex="1" parent="1">
          <mxGeometry x="1920" y="958" width="40" height="12" as="geometry" />
        </mxCell>
        <mxCell id="cE951n0SnukcfVOSbf7h-20" value="" style="verticalLabelPosition=bottom;html=1;verticalAlign=top;align=center;strokeWidth=1;shape=mxgraph.floorplan.wall;fillColor=#000000;direction=south;rounded=0;shadow=0;comic=0;fontFamily=Verdana;fontSize=12;" vertex="1" parent="1">
          <mxGeometry x="2080" y="888" width="10" height="82" as="geometry" />
        </mxCell>
        <mxCell id="cE951n0SnukcfVOSbf7h-21" value="" style="verticalLabelPosition=bottom;html=1;verticalAlign=top;align=center;strokeWidth=1;shape=mxgraph.floorplan.doorLeft;rounded=0;shadow=0;comic=0;fontFamily=Verdana;fontSize=12;rotation=90;flipV=1;flipH=1;direction=west;" vertex="1" parent="1">
          <mxGeometry x="2357.5" y="797.5" width="80" height="85" as="geometry" />
        </mxCell>
        <mxCell id="cE951n0SnukcfVOSbf7h-22" value="" style="verticalLabelPosition=bottom;html=1;verticalAlign=top;align=center;strokeWidth=1;shape=mxgraph.floorplan.wall;fillColor=#000000;direction=south;rounded=0;shadow=0;comic=0;fontFamily=Verdana;fontSize=12;" vertex="1" parent="1">
          <mxGeometry x="2430" y="880" width="10" height="90" as="geometry" />
        </mxCell>
        <mxCell id="cE951n0SnukcfVOSbf7h-23" value="" style="verticalLabelPosition=bottom;html=1;verticalAlign=top;align=center;strokeWidth=1;shape=mxgraph.floorplan.doorLeft;rounded=0;shadow=0;comic=0;fontFamily=Verdana;fontSize=12;rotation=90;flipV=1;flipH=1;direction=north;" vertex="1" parent="1">
          <mxGeometry x="2620" y="888" width="85" height="80" as="geometry" />
        </mxCell>
        <mxCell id="cE951n0SnukcfVOSbf7h-24" value="" style="verticalLabelPosition=bottom;html=1;verticalAlign=top;align=center;strokeWidth=1;shape=mxgraph.floorplan.wall;fillColor=#000000;direction=west;rounded=0;shadow=0;comic=0;fontFamily=Verdana;fontSize=12;" vertex="1" parent="1">
          <mxGeometry x="2702.5" y="960" width="147.5" height="10" as="geometry" />
        </mxCell>
      </root>
    </mxGraphModel>
  </diagram>
</mxfile>
